<mxfile type="github" version="12.1.7" host="www.draw.io" modified="2019-10-28T10:20:40.374Z" agent="Mozilla/5.0 (Windows NT 10.0; Win64; x64) AppleWebKit/537.36 (KHTML, like Gecko) Chrome/70.0.3538.102 Safari/537.36 Edge/18.18362" etag="_UmTLg265AaZxkUb9Y-Q" pages="1">
  <diagram id="6a731a19-8d31-9384-78a2-239565b7b9f0" name="Page-1">
    <mxGraphModel grid="1" dx="1024" dy="562" gridSize="10" guides="1" tooltips="1" connect="1" arrows="1" fold="1" page="1" pageScale="1" pageWidth="1169" pageHeight="827" math="0" shadow="0" background="#ffffff">
      <root>
        <mxCell id="0"/>
        <mxCell id="1" parent="0"/>
        <mxCell id="1350" value="Other&lt;br&gt;Function" parent="1" vertex="1" style="ellipse;whiteSpace=wrap;html=1;shadow=0;fontFamily=Helvetica;fontSize=20;fontColor=#FFFFFF;align=center;strokeWidth=3;fillColor=#1699D3;strokeColor=none;">
          <mxGeometry as="geometry" height="120" width="120" y="751.5" x="760"/>
        </mxCell>
        <mxCell id="1351" value="Interface" parent="1" vertex="1" style="ellipse;whiteSpace=wrap;html=1;shadow=0;fontFamily=Helvetica;fontSize=20;fontColor=#FFFFFF;align=center;strokeWidth=3;fillColor=#F08705;strokeColor=none;gradientColor=none;">
          <mxGeometry as="geometry" height="120" width="120" y="353.5" x="1333.5"/>
        </mxCell>
        <mxCell id="1352" value="GameServer&lt;br&gt;Management" parent="1" vertex="1" style="ellipse;whiteSpace=wrap;html=1;shadow=0;fontFamily=Helvetica;fontSize=20;fontColor=#FFFFFF;align=center;strokeWidth=3;fillColor=#E85642;strokeColor=none;">
          <mxGeometry as="geometry" height="120" width="120" y="751.5" x="1330"/>
        </mxCell>
        <mxCell id="1358" value="Wikipedia" parent="1" vertex="1" style="rounded=1;fillColor=#64BBE2;strokeColor=none;strokeWidth=3;shadow=0;html=1;fontColor=#FFFFFF;">
          <mxGeometry as="geometry" height="40" width="130" y="842" x="495"/>
        </mxCell>
        <mxCell id="1359" source="1515" parent="1" style="endArrow=none;strokeWidth=6;strokeColor=#1699D3;html=1;" edge="1" target="1350">
          <mxGeometry as="geometry" relative="1"/>
        </mxCell>
        <mxCell id="1360" source="1515" parent="1" style="endArrow=none;strokeWidth=6;strokeColor=#f08705;html=1;" edge="1" target="1351">
          <mxGeometry as="geometry" relative="1"/>
        </mxCell>
        <mxCell id="1361" source="1515" parent="1" style="endArrow=none;strokeWidth=6;strokeColor=#E85642;html=1;" edge="1" target="1352">
          <mxGeometry as="geometry" relative="1"/>
        </mxCell>
        <mxCell id="1363" source="1515" parent="1" style="endArrow=none;strokeWidth=6;strokeColor=#736CA8;html=1;" edge="1" target="1516">
          <mxGeometry as="geometry" relative="1"/>
        </mxCell>
        <mxCell id="1367" value="Google検索" parent="1" vertex="1" style="rounded=1;fillColor=#64BBE2;strokeColor=none;strokeWidth=3;shadow=0;html=1;fontColor=#FFFFFF;">
          <mxGeometry as="geometry" height="40" width="130" y="920" x="600"/>
        </mxCell>
        <mxCell id="1369" value="アラーム" parent="1" vertex="1" style="rounded=1;fillColor=#64BBE2;strokeColor=none;strokeWidth=3;shadow=0;html=1;fontColor=#FFFFFF;">
          <mxGeometry as="geometry" height="40" width="130" y="751.5" x="519"/>
        </mxCell>
        <mxCell id="1370" value="雑談" parent="1" vertex="1" style="rounded=1;fillColor=#64BBE2;strokeColor=none;strokeWidth=3;shadow=0;html=1;fontColor=#FFFFFF;">
          <mxGeometry as="geometry" height="40" width="130" y="676.5" x="600"/>
        </mxCell>
        <mxCell id="1378" source="1350" value="" parent="1" style="edgeStyle=none;endArrow=none;strokeWidth=3;strokeColor=#64BBE2;html=1;" edge="1" target="1367">
          <mxGeometry as="geometry" height="100" width="100" y="540" x="-254">
            <mxPoint as="sourcePoint" y="640" x="-254"/>
            <mxPoint as="targetPoint" y="540" x="-154"/>
          </mxGeometry>
        </mxCell>
        <mxCell id="1379" source="1350" value="" parent="1" style="edgeStyle=none;endArrow=none;strokeWidth=3;strokeColor=#64BBE2;html=1;" edge="1" target="1358">
          <mxGeometry as="geometry" height="100" width="100" y="540" x="-254">
            <mxPoint as="sourcePoint" y="640" x="-254"/>
            <mxPoint as="targetPoint" y="540" x="-154"/>
          </mxGeometry>
        </mxCell>
        <mxCell id="1381" source="1350" value="" parent="1" style="edgeStyle=none;endArrow=none;strokeWidth=3;strokeColor=#64BBE2;html=1;" edge="1" target="1369">
          <mxGeometry as="geometry" height="100" width="100" y="540" x="-254">
            <mxPoint as="sourcePoint" y="640" x="-254"/>
            <mxPoint as="targetPoint" y="540" x="-154"/>
          </mxGeometry>
        </mxCell>
        <mxCell id="1382" source="1350" value="" parent="1" style="edgeStyle=none;endArrow=none;strokeWidth=3;strokeColor=#64BBE2;html=1;" edge="1" target="1370">
          <mxGeometry as="geometry" height="100" width="100" y="540" x="-254">
            <mxPoint as="sourcePoint" y="640" x="-254"/>
            <mxPoint as="targetPoint" y="540" x="-154"/>
          </mxGeometry>
        </mxCell>
        <mxCell id="1391" value="WebApp" parent="1" vertex="1" style="rounded=1;fillColor=#f5af58;strokeColor=none;strokeWidth=3;shadow=0;html=1;fontColor=#FFFFFF;">
          <mxGeometry as="geometry" height="40" width="120" y="310" x="1211"/>
        </mxCell>
        <mxCell id="1392" value="JavaApp" parent="1" vertex="1" style="rounded=1;fillColor=#f5af58;strokeColor=none;strokeWidth=3;shadow=0;html=1;fontColor=#FFFFFF;">
          <mxGeometry as="geometry" height="40" width="120" y="443.5" x="1180"/>
        </mxCell>
        <mxCell id="1393" value="Dicord" parent="1" vertex="1" style="rounded=1;fillColor=#f5af58;strokeColor=none;strokeWidth=3;shadow=0;html=1;fontColor=#FFFFFF;">
          <mxGeometry as="geometry" height="40" width="120" y="250" x="1350"/>
        </mxCell>
        <mxCell id="1394" value="Line" parent="1" vertex="1" style="rounded=1;fillColor=#f5af58;strokeColor=none;strokeWidth=3;shadow=0;html=1;fontColor=#FFFFFF;">
          <mxGeometry as="geometry" height="40" width="120" y="310" x="1490"/>
        </mxCell>
        <mxCell id="1403" source="1351" value="" parent="1" style="edgeStyle=none;endArrow=none;strokeWidth=3;strokeColor=#F5AF58;html=1;" edge="1" target="1391">
          <mxGeometry as="geometry" height="100" width="100" y="-61.5" x="253.5">
            <mxPoint as="sourcePoint" y="38.5" x="253.5"/>
            <mxPoint as="targetPoint" y="-61.5" x="353.5"/>
          </mxGeometry>
        </mxCell>
        <mxCell id="1404" source="1351" value="" parent="1" style="edgeStyle=none;endArrow=none;strokeWidth=3;strokeColor=#F5AF58;html=1;" edge="1" target="1392">
          <mxGeometry as="geometry" height="100" width="100" y="-61.5" x="253.5">
            <mxPoint as="sourcePoint" y="38.5" x="253.5"/>
            <mxPoint as="targetPoint" y="-61.5" x="353.5"/>
          </mxGeometry>
        </mxCell>
        <mxCell id="1405" source="1351" value="" parent="1" style="edgeStyle=none;endArrow=none;strokeWidth=3;strokeColor=#F5AF58;html=1;" edge="1" target="1393">
          <mxGeometry as="geometry" height="100" width="100" y="-61.5" x="253.5">
            <mxPoint as="sourcePoint" y="38.5" x="253.5"/>
            <mxPoint as="targetPoint" y="-61.5" x="353.5"/>
          </mxGeometry>
        </mxCell>
        <mxCell id="1406" source="1351" value="" parent="1" style="edgeStyle=none;endArrow=none;strokeWidth=3;strokeColor=#F5AF58;html=1;" edge="1" target="1394">
          <mxGeometry as="geometry" height="100" width="100" y="-61.5" x="253.5">
            <mxPoint as="sourcePoint" y="38.5" x="253.5"/>
            <mxPoint as="targetPoint" y="-61.5" x="353.5"/>
          </mxGeometry>
        </mxCell>
        <mxCell id="1417" value="サーバ管理" parent="1" vertex="1" style="rounded=1;fillColor=#f08e81;strokeColor=none;strokeWidth=3;shadow=0;html=1;fontColor=#FFFFFF;">
          <mxGeometry as="geometry" height="40" width="136" y="840" x="1812"/>
        </mxCell>
        <mxCell id="1422" value="7Days To Die" parent="1" vertex="1" style="rounded=1;fillColor=#f08e81;strokeColor=none;strokeWidth=3;shadow=0;html=1;fontColor=#FFFFFF;">
          <mxGeometry as="geometry" height="40" width="120" y="651.5" x="1796"/>
        </mxCell>
        <mxCell id="1428" source="pjtjC9BT-Armh7AM7MVx-1542" value="" parent="1" style="edgeStyle=none;endArrow=none;strokeWidth=3;strokeColor=#F08E81;html=1;" edge="1" target="1417">
          <mxGeometry as="geometry" height="100" width="100" x="13">
            <mxPoint as="sourcePoint" y="799.2484220208228" x="1698.8286745376676"/>
            <mxPoint as="targetPoint" x="113"/>
          </mxGeometry>
        </mxCell>
        <mxCell id="1432" source="pjtjC9BT-Armh7AM7MVx-1544" value="" parent="1" style="edgeStyle=none;endArrow=none;strokeWidth=3;strokeColor=#F08E81;html=1;" edge="1" target="1422">
          <mxGeometry as="geometry" height="100" width="100" y="176.5" x="-59">
            <mxPoint as="sourcePoint" y="276.5" x="-59"/>
            <mxPoint as="targetPoint" y="176.5" x="41"/>
          </mxGeometry>
        </mxCell>
        <mxCell id="1515" value="Bot" parent="1" vertex="1" style="ellipse;whiteSpace=wrap;html=1;shadow=0;fontFamily=Helvetica;fontSize=30;fontColor=#2F5B7C;align=center;strokeColor=#2F5B7C;strokeWidth=6;fillColor=#FFFFFF;fontStyle=1;gradientColor=none;">
          <mxGeometry as="geometry" height="270" width="270" y="670" x="946"/>
        </mxCell>
        <mxCell id="1516" value="Bot&lt;br&gt;Management" parent="1" vertex="1" style="ellipse;whiteSpace=wrap;html=1;shadow=0;fontFamily=Helvetica;fontSize=20;fontColor=#FFFFFF;align=center;strokeWidth=3;fillColor=#736ca8;strokeColor=none;">
          <mxGeometry as="geometry" height="120" width="120" y="1000" x="1036"/>
        </mxCell>
        <mxCell id="FF3H6oocYMk4fZ1HgHEm-1544" source="1517" parent="1" style="rounded=0;orthogonalLoop=1;jettySize=auto;html=1;" edge="1" target="FF3H6oocYMk4fZ1HgHEm-1542">
          <mxGeometry as="geometry" relative="1"/>
        </mxCell>
        <mxCell id="FF3H6oocYMk4fZ1HgHEm-1546" source="1517" parent="1" style="edgeStyle=none;rounded=0;orthogonalLoop=1;jettySize=auto;html=1;" edge="1" target="FF3H6oocYMk4fZ1HgHEm-1545">
          <mxGeometry as="geometry" relative="1"/>
        </mxCell>
        <mxCell id="1517" value="MasterBot管理" parent="1" vertex="1" style="rounded=1;fillColor=#a29dc5;strokeColor=none;strokeWidth=3;shadow=0;html=1;fontColor=#FFFFFF;">
          <mxGeometry as="geometry" height="40" width="120" y="1270" x="1300"/>
        </mxCell>
        <mxCell id="1528" source="6465Vv-sovweHxPbtm3L-1542" value="" parent="1" style="edgeStyle=none;endArrow=none;strokeWidth=3;strokeColor=#A29DC5;html=1;" edge="1" target="6465Vv-sovweHxPbtm3L-1544">
          <mxGeometry as="geometry" height="100" width="100" y="205" x="-762.5">
            <mxPoint as="sourcePoint" y="305" x="-762.5"/>
            <mxPoint as="targetPoint" y="205" x="-662.5"/>
          </mxGeometry>
        </mxCell>
        <mxCell id="1542" parent="1" style="edgeStyle=none;rounded=0;html=1;exitX=0.5;exitY=1;endArrow=none;endFill=0;jettySize=auto;orthogonalLoop=1;strokeColor=#736CA8;strokeWidth=2;fillColor=#64bbe2;fontSize=20;fontColor=#23445D;" edge="1">
          <mxGeometry as="geometry" relative="1">
            <mxPoint as="sourcePoint" y="1280" x="872.5"/>
            <mxPoint as="targetPoint" y="1280" x="872.5"/>
          </mxGeometry>
        </mxCell>
        <mxCell id="pjtjC9BT-Armh7AM7MVx-1542" value="Function" parent="1" vertex="1" style="ellipse;whiteSpace=wrap;html=1;shadow=0;fontFamily=Helvetica;fontSize=20;fontColor=#FFFFFF;align=center;strokeWidth=3;fillColor=#E85642;strokeColor=none;">
          <mxGeometry as="geometry" height="120" width="120" y="826.5" x="1600"/>
        </mxCell>
        <mxCell id="pjtjC9BT-Armh7AM7MVx-1543" source="pjtjC9BT-Armh7AM7MVx-1542" parent="1" style="endArrow=none;strokeWidth=6;strokeColor=#E85642;html=1;" edge="1" target="1352">
          <mxGeometry as="geometry" relative="1">
            <mxPoint as="sourcePoint" y="752.5728931290323" x="1222.077792615119"/>
            <mxPoint as="targetPoint" y="457.1412862747454" x="1719.4140370311247"/>
          </mxGeometry>
        </mxCell>
        <mxCell id="pjtjC9BT-Armh7AM7MVx-1544" value="GameServer" parent="1" vertex="1" style="ellipse;whiteSpace=wrap;html=1;shadow=0;fontFamily=Helvetica;fontSize=20;fontColor=#FFFFFF;align=center;strokeWidth=3;fillColor=#E85642;strokeColor=none;">
          <mxGeometry as="geometry" height="120" width="120" y="661.5" x="1570"/>
        </mxCell>
        <mxCell id="pjtjC9BT-Armh7AM7MVx-1545" source="pjtjC9BT-Armh7AM7MVx-1544" parent="1" style="endArrow=none;strokeWidth=6;strokeColor=#E85642;html=1;" edge="1" target="1352">
          <mxGeometry as="geometry" relative="1">
            <mxPoint as="sourcePoint" y="970.5834511786443" x="1614.7635580640817"/>
            <mxPoint as="targetPoint" y="860.8914686814191" x="1488.758283165886"/>
          </mxGeometry>
        </mxCell>
        <mxCell id="pjtjC9BT-Armh7AM7MVx-1546" value="Minecraft" parent="1" vertex="1" style="rounded=1;fillColor=#f08e81;strokeColor=none;strokeWidth=3;shadow=0;html=1;fontColor=#FFFFFF;">
          <mxGeometry as="geometry" height="40" width="120" y="576.5" x="1760"/>
        </mxCell>
        <mxCell id="pjtjC9BT-Armh7AM7MVx-1547" source="pjtjC9BT-Armh7AM7MVx-1544" value="" parent="1" style="edgeStyle=none;endArrow=none;strokeWidth=3;strokeColor=#F08E81;html=1;" edge="1" target="pjtjC9BT-Armh7AM7MVx-1546">
          <mxGeometry as="geometry" height="100" width="100" y="186.5" x="-49">
            <mxPoint as="sourcePoint" y="751.5741760574692" x="1696.5422625618716"/>
            <mxPoint as="targetPoint" y="791.5" x="1809.5"/>
          </mxGeometry>
        </mxCell>
        <mxCell id="pjtjC9BT-Armh7AM7MVx-1548" value="Ark Survival Evoled" parent="1" vertex="1" style="rounded=1;fillColor=#f08e81;strokeColor=none;strokeWidth=3;shadow=0;html=1;fontColor=#FFFFFF;">
          <mxGeometry as="geometry" height="40" width="120" y="526.5" x="1620"/>
        </mxCell>
        <mxCell id="pjtjC9BT-Armh7AM7MVx-1549" source="pjtjC9BT-Armh7AM7MVx-1544" value="" parent="1" style="edgeStyle=none;endArrow=none;strokeWidth=3;strokeColor=#F08E81;html=1;" edge="1" target="pjtjC9BT-Armh7AM7MVx-1548">
          <mxGeometry as="geometry" height="100" width="100" y="196.5" x="-39">
            <mxPoint as="sourcePoint" y="727.0909004666287" x="1699.8377793814693"/>
            <mxPoint as="targetPoint" y="716.6800000000001" x="1830"/>
          </mxGeometry>
        </mxCell>
        <mxCell id="pjtjC9BT-Armh7AM7MVx-1554" value="多重起動防止" parent="1" vertex="1" style="rounded=1;fillColor=#f08e81;strokeColor=none;strokeWidth=3;shadow=0;html=1;fontColor=#FFFFFF;">
          <mxGeometry as="geometry" height="40" width="136" y="943.5" x="1800"/>
        </mxCell>
        <mxCell id="pjtjC9BT-Armh7AM7MVx-1555" source="pjtjC9BT-Armh7AM7MVx-1542" value="" parent="1" style="edgeStyle=none;endArrow=none;strokeWidth=3;strokeColor=#F08E81;html=1;" edge="1" target="pjtjC9BT-Armh7AM7MVx-1554">
          <mxGeometry as="geometry" height="100" width="100" y="10" x="23">
            <mxPoint as="sourcePoint" y="817.885580592585" x="1688.526151604929"/>
            <mxPoint as="targetPoint" y="855.5" x="1802.9411764705883"/>
          </mxGeometry>
        </mxCell>
        <mxCell id="pjtjC9BT-Armh7AM7MVx-1570" source="pjtjC9BT-Armh7AM7MVx-1556" parent="1" style="edgeStyle=none;rounded=0;orthogonalLoop=1;jettySize=auto;html=1;" edge="1" target="pjtjC9BT-Armh7AM7MVx-1569">
          <mxGeometry as="geometry" relative="1"/>
        </mxCell>
        <mxCell id="pjtjC9BT-Armh7AM7MVx-1572" source="pjtjC9BT-Armh7AM7MVx-1556" parent="1" style="edgeStyle=none;rounded=0;orthogonalLoop=1;jettySize=auto;html=1;" edge="1" target="pjtjC9BT-Armh7AM7MVx-1571">
          <mxGeometry as="geometry" relative="1"/>
        </mxCell>
        <mxCell id="pjtjC9BT-Armh7AM7MVx-1556" value="ユーザID毎データ管理" parent="1" vertex="1" style="rounded=1;fillColor=#f08e81;strokeColor=none;strokeWidth=3;shadow=0;html=1;fontColor=#FFFFFF;">
          <mxGeometry as="geometry" height="40" width="136" y="1043.5" x="1642"/>
        </mxCell>
        <mxCell id="pjtjC9BT-Armh7AM7MVx-1557" source="pjtjC9BT-Armh7AM7MVx-1542" value="" parent="1" style="edgeStyle=none;endArrow=none;strokeWidth=3;strokeColor=#F08E81;html=1;" edge="1" target="pjtjC9BT-Armh7AM7MVx-1556">
          <mxGeometry as="geometry" height="100" width="100" y="20" x="33">
            <mxPoint as="sourcePoint" y="838.354733499858" x="1655.9543927934441"/>
            <mxPoint as="targetPoint" y="917.7372881355932" x="1810"/>
          </mxGeometry>
        </mxCell>
        <mxCell id="pjtjC9BT-Armh7AM7MVx-1569" value="ユーザ課金額確認" parent="1" vertex="1" style="rounded=1;fillColor=#f08e81;strokeColor=none;strokeWidth=3;shadow=0;html=1;fontColor=#FFFFFF;">
          <mxGeometry as="geometry" height="40" width="136" y="1133.5" x="1756"/>
        </mxCell>
        <mxCell id="pjtjC9BT-Armh7AM7MVx-1571" value="データ削除" parent="1" vertex="1" style="rounded=1;fillColor=#f08e81;strokeColor=none;strokeWidth=3;shadow=0;html=1;fontColor=#FFFFFF;">
          <mxGeometry as="geometry" height="40" width="136" y="1043.5" x="1832"/>
        </mxCell>
        <mxCell id="pjtjC9BT-Armh7AM7MVx-1573" value="サーバ起動・停止" parent="1" vertex="1" style="rounded=1;fillColor=#f08e81;strokeColor=none;strokeWidth=3;shadow=0;html=1;fontColor=#FFFFFF;">
          <mxGeometry as="geometry" height="40" width="136" y="813.5" x="1988"/>
        </mxCell>
        <mxCell id="pjtjC9BT-Armh7AM7MVx-1574" source="1417" parent="1" style="rounded=0;orthogonalLoop=1;jettySize=auto;html=1;" edge="1" target="pjtjC9BT-Armh7AM7MVx-1573">
          <mxGeometry as="geometry" relative="1">
            <mxPoint as="sourcePoint" y="735" x="1895.6"/>
            <mxPoint as="targetPoint" y="700" x="1940.4"/>
          </mxGeometry>
        </mxCell>
        <mxCell id="pjtjC9BT-Armh7AM7MVx-1575" value="サーバ課金額確認" parent="1" vertex="1" style="rounded=1;fillColor=#f08e81;strokeColor=none;strokeWidth=3;shadow=0;html=1;fontColor=#FFFFFF;">
          <mxGeometry as="geometry" height="40" width="136" y="880" x="1988"/>
        </mxCell>
        <mxCell id="pjtjC9BT-Armh7AM7MVx-1576" source="1417" parent="1" style="rounded=0;orthogonalLoop=1;jettySize=auto;html=1;" edge="1" target="pjtjC9BT-Armh7AM7MVx-1575">
          <mxGeometry as="geometry" relative="1">
            <mxPoint as="sourcePoint" y="861.8072289156628" x="1958"/>
            <mxPoint as="targetPoint" y="858.1927710843374" x="1988"/>
          </mxGeometry>
        </mxCell>
        <mxCell id="6465Vv-sovweHxPbtm3L-1542" value="Function" parent="1" vertex="1" style="ellipse;whiteSpace=wrap;html=1;shadow=0;fontFamily=Helvetica;fontSize=20;fontColor=#FFFFFF;align=center;strokeWidth=3;fillColor=#736ca8;strokeColor=none;">
          <mxGeometry as="geometry" height="120" width="120" y="1173.5" x="1156"/>
        </mxCell>
        <mxCell id="6465Vv-sovweHxPbtm3L-1543" source="1516" parent="1" style="endArrow=none;strokeWidth=6;strokeColor=#736CA8;html=1;" edge="1" target="6465Vv-sovweHxPbtm3L-1542">
          <mxGeometry as="geometry" relative="1">
            <mxPoint as="sourcePoint" y="956.5" x="1106"/>
            <mxPoint as="targetPoint" y="1010" x="1106"/>
          </mxGeometry>
        </mxCell>
        <mxCell id="FF3H6oocYMk4fZ1HgHEm-1548" source="6465Vv-sovweHxPbtm3L-1544" parent="1" style="edgeStyle=none;rounded=0;orthogonalLoop=1;jettySize=auto;html=1;" edge="1" target="FF3H6oocYMk4fZ1HgHEm-1547">
          <mxGeometry as="geometry" relative="1"/>
        </mxCell>
        <mxCell id="FF3H6oocYMk4fZ1HgHEm-1550" source="6465Vv-sovweHxPbtm3L-1544" parent="1" style="edgeStyle=none;rounded=0;orthogonalLoop=1;jettySize=auto;html=1;" edge="1" target="FF3H6oocYMk4fZ1HgHEm-1549">
          <mxGeometry as="geometry" relative="1"/>
        </mxCell>
        <mxCell id="6465Vv-sovweHxPbtm3L-1544" value="Stray/ChildBot管理" parent="1" vertex="1" style="rounded=1;fillColor=#a29dc5;strokeColor=none;strokeWidth=3;shadow=0;html=1;fontColor=#FFFFFF;">
          <mxGeometry as="geometry" height="40" width="120" y="1130" x="1270"/>
        </mxCell>
        <mxCell id="6465Vv-sovweHxPbtm3L-1545" source="6465Vv-sovweHxPbtm3L-1542" value="" parent="1" style="edgeStyle=none;endArrow=none;strokeWidth=3;strokeColor=#A29DC5;html=1;" edge="1" target="1517">
          <mxGeometry as="geometry" height="100" width="100" y="215" x="-752.5">
            <mxPoint as="sourcePoint" y="1249.2936945511223" x="1285.719620757723"/>
            <mxPoint as="targetPoint" y="1257.3144329896906" x="1360"/>
          </mxGeometry>
        </mxCell>
        <mxCell id="FF3H6oocYMk4fZ1HgHEm-1542" value="全体課金額確認" parent="1" vertex="1" style="rounded=1;fillColor=#a29dc5;strokeColor=none;strokeWidth=3;shadow=0;html=1;fontColor=#FFFFFF;">
          <mxGeometry as="geometry" height="40" width="120" y="1230" x="1450"/>
        </mxCell>
        <mxCell id="FF3H6oocYMk4fZ1HgHEm-1545" value="全機能停止" parent="1" vertex="1" style="rounded=1;fillColor=#a29dc5;strokeColor=none;strokeWidth=3;shadow=0;html=1;fontColor=#FFFFFF;">
          <mxGeometry as="geometry" height="40" width="120" y="1310" x="1460"/>
        </mxCell>
        <mxCell id="FF3H6oocYMk4fZ1HgHEm-1547" value="Bot課金額確認" parent="1" vertex="1" style="rounded=1;fillColor=#a29dc5;strokeColor=none;strokeWidth=3;shadow=0;html=1;fontColor=#FFFFFF;">
          <mxGeometry as="geometry" height="40" width="120" y="1110" x="1433.5"/>
        </mxCell>
        <mxCell id="FF3H6oocYMk4fZ1HgHEm-1549" value="Bot毎機能停止" parent="1" vertex="1" style="rounded=1;fillColor=#a29dc5;strokeColor=none;strokeWidth=3;shadow=0;html=1;fontColor=#FFFFFF;">
          <mxGeometry as="geometry" height="40" width="120" y="1030" x="1380"/>
        </mxCell>
        <mxCell id="KW3E8SHJ2kYHWG3OrLLy-1542" value="BotServer" parent="1" vertex="1" style="ellipse;whiteSpace=wrap;html=1;shadow=0;fontFamily=Helvetica;fontSize=20;fontColor=#FFFFFF;align=center;strokeWidth=3;fillColor=#736ca8;strokeColor=none;">
          <mxGeometry as="geometry" height="120" width="120" y="1110" x="901"/>
        </mxCell>
        <mxCell id="KW3E8SHJ2kYHWG3OrLLy-1543" source="1516" parent="1" style="endArrow=none;strokeWidth=6;strokeColor=#736CA8;html=1;" edge="1" target="KW3E8SHJ2kYHWG3OrLLy-1542">
          <mxGeometry as="geometry" relative="1">
            <mxPoint as="sourcePoint" y="1119.4890489513272" x="1139.9239448456678"/>
            <mxPoint as="targetPoint" y="1194.1992658695926" x="1191.8029589846887"/>
          </mxGeometry>
        </mxCell>
        <mxCell id="3WLy39RrMBektu365x85-1542" value="MasterBot" parent="1" vertex="1" style="rounded=1;fillColor=#a29dc5;strokeColor=none;strokeWidth=3;shadow=0;html=1;fontColor=#FFFFFF;">
          <mxGeometry as="geometry" height="40" width="120" y="1200" x="730"/>
        </mxCell>
        <mxCell id="3WLy39RrMBektu365x85-1543" source="KW3E8SHJ2kYHWG3OrLLy-1542" value="" parent="1" style="edgeStyle=none;endArrow=none;strokeWidth=3;strokeColor=#A29DC5;html=1;" edge="1" target="3WLy39RrMBektu365x85-1542">
          <mxGeometry as="geometry" height="100" width="100" y="225" x="-742.5">
            <mxPoint as="sourcePoint" y="1286.1096717135051" x="1268.2423469573541"/>
            <mxPoint as="targetPoint" y="1360" x="1341.2197802197802"/>
          </mxGeometry>
        </mxCell>
        <mxCell id="3WLy39RrMBektu365x85-1544" value="ChildBot" parent="1" vertex="1" style="rounded=1;fillColor=#a29dc5;strokeColor=none;strokeWidth=3;shadow=0;html=1;fontColor=#FFFFFF;">
          <mxGeometry as="geometry" height="40" width="120" y="1120" x="740"/>
        </mxCell>
        <mxCell id="3WLy39RrMBektu365x85-1545" source="KW3E8SHJ2kYHWG3OrLLy-1542" value="" parent="1" style="edgeStyle=none;endArrow=none;strokeWidth=3;strokeColor=#A29DC5;html=1;" edge="1" target="3WLy39RrMBektu365x85-1544">
          <mxGeometry as="geometry" height="100" width="100" y="235" x="-732.5">
            <mxPoint as="sourcePoint" y="1289.702231412597" x="980.0297768587402"/>
            <mxPoint as="targetPoint" y="1360" x="973"/>
          </mxGeometry>
        </mxCell>
        <mxCell id="3WLy39RrMBektu365x85-1546" value="StrayBot" parent="1" vertex="1" style="rounded=1;fillColor=#a29dc5;strokeColor=none;strokeWidth=3;shadow=0;html=1;fontColor=#FFFFFF;">
          <mxGeometry as="geometry" height="40" width="120" y="1040" x="810"/>
        </mxCell>
        <mxCell id="3WLy39RrMBektu365x85-1547" source="KW3E8SHJ2kYHWG3OrLLy-1542" value="" parent="1" style="edgeStyle=none;endArrow=none;strokeWidth=3;strokeColor=#A29DC5;html=1;" edge="1" target="3WLy39RrMBektu365x85-1546">
          <mxGeometry as="geometry" height="100" width="100" y="235" x="-732.5">
            <mxPoint as="sourcePoint" y="1288.2085500087196" x="971.4478624978201"/>
            <mxPoint as="targetPoint" y="1390" x="945.1111111111113"/>
          </mxGeometry>
        </mxCell>
        <mxCell id="EZ1fQWamHeNOpK0QoKr6-1542" value="Alexa" parent="1" vertex="1" style="rounded=1;fillColor=#f5af58;strokeColor=none;strokeWidth=3;shadow=0;html=1;fontColor=#FFFFFF;">
          <mxGeometry as="geometry" height="40" width="120" y="463.5" x="1470"/>
        </mxCell>
        <mxCell id="EZ1fQWamHeNOpK0QoKr6-1543" source="1351" value="" parent="1" style="edgeStyle=none;endArrow=none;strokeWidth=3;strokeColor=#F5AF58;html=1;" edge="1" target="EZ1fQWamHeNOpK0QoKr6-1542">
          <mxGeometry as="geometry" height="100" width="100" y="-51.5" x="263.5">
            <mxPoint as="sourcePoint" y="392.41019898957006" x="1454.8169004629985"/>
            <mxPoint as="targetPoint" y="340" x="1540.6497584541061"/>
          </mxGeometry>
        </mxCell>
        <mxCell id="GXcnoSoEkiRonVVI9CE6-1542" value="AutoRecovery" parent="1" vertex="1" style="rounded=1;fillColor=#a29dc5;strokeColor=none;strokeWidth=3;shadow=0;html=1;fontColor=#FFFFFF;arcSize=15;">
          <mxGeometry as="geometry" height="40" width="120" y="1290" x="790"/>
        </mxCell>
        <mxCell id="GXcnoSoEkiRonVVI9CE6-1543" source="KW3E8SHJ2kYHWG3OrLLy-1542" value="" parent="1" style="edgeStyle=none;endArrow=none;strokeWidth=3;strokeColor=#A29DC5;html=1;entryX=0.75;entryY=0;entryDx=0;entryDy=0;" edge="1" target="GXcnoSoEkiRonVVI9CE6-1542">
          <mxGeometry as="geometry" height="100" width="100" y="418.24022755019223" x="-625.8882822037867">
            <mxPoint as="sourcePoint" y="1300" x="1050"/>
            <mxPoint as="targetPoint" y="1395.6963679010696" x="966.6117177962133"/>
          </mxGeometry>
        </mxCell>
        <mxCell id="T2FetQmbXYVhRWRneNrc-1542" value="Bot Engine" parent="1" vertex="1" style="ellipse;whiteSpace=wrap;html=1;shadow=0;fontFamily=Helvetica;fontSize=20;align=center;strokeWidth=3;fillColor=#60a917;strokeColor=none;fontColor=#ffffff;">
          <mxGeometry as="geometry" height="120" width="120" y="363.5" x="770"/>
        </mxCell>
        <mxCell id="T2FetQmbXYVhRWRneNrc-1543" source="1515" parent="1" style="endArrow=none;strokeWidth=6;strokeColor=#2D7600;html=1;fillColor=#60a917;" edge="1" target="T2FetQmbXYVhRWRneNrc-1542">
          <mxGeometry as="geometry" relative="1">
            <mxPoint as="sourcePoint" y="737.0528117411159" x="849.7964441023059"/>
            <mxPoint as="targetPoint" y="497.89890024126225" x="1040.5768366361285"/>
          </mxGeometry>
        </mxCell>
        <mxCell id="T2FetQmbXYVhRWRneNrc-1544" value="" parent="1" vertex="1" style="rounded=1;fillColor=#cdeb8b;strokeColor=none;strokeWidth=3;shadow=0;html=1;fontColor=#000000;">
          <mxGeometry as="geometry" height="40" width="120" y="260" x="860"/>
        </mxCell>
        <mxCell id="T2FetQmbXYVhRWRneNrc-1546" source="T2FetQmbXYVhRWRneNrc-1542" value="" parent="1" style="edgeStyle=none;endArrow=none;strokeWidth=3;strokeColor=#82b366;html=1;fillColor=#d5e8d4;" edge="1" target="T2FetQmbXYVhRWRneNrc-1544">
          <mxGeometry as="geometry" height="100" width="100" y="-51.5" x="263.5">
            <mxPoint as="sourcePoint" y="389.8491112898223" x="1353.82487857069"/>
            <mxPoint as="targetPoint" y="360" x="1310.3413173652693"/>
          </mxGeometry>
        </mxCell>
        <mxCell id="T2FetQmbXYVhRWRneNrc-1547" value="PaaS" parent="1" vertex="1" style="ellipse;whiteSpace=wrap;html=1;shadow=0;fontFamily=Helvetica;fontSize=20;align=center;strokeWidth=3;fillColor=#60a917;strokeColor=none;fontColor=#ffffff;">
          <mxGeometry as="geometry" height="120" width="120" y="250" x="550"/>
        </mxCell>
        <mxCell id="T2FetQmbXYVhRWRneNrc-1548" source="T2FetQmbXYVhRWRneNrc-1542" value="" parent="1" style="edgeStyle=none;endArrow=none;strokeWidth=3;strokeColor=#82b366;html=1;fillColor=#d5e8d4;" edge="1" target="T2FetQmbXYVhRWRneNrc-1547">
          <mxGeometry as="geometry" height="100" width="100" y="-41.5" x="273.5">
            <mxPoint as="sourcePoint" y="382.6433439151165" x="871.8370936466345"/>
            <mxPoint as="targetPoint" y="310" x="917.4564459930314"/>
          </mxGeometry>
        </mxCell>
      </root>
    </mxGraphModel>
  </diagram>
</mxfile>
